<svg xmlns="http://www.w3.org/2000/svg" viewBox="0 18.459999084472656 73.80000305175781 37.90999984741211" data-asc="1.111328125" width="73.80000305175781" height="37.90999984741211"><defs/><g fill="#0dd3c6"><g transform="translate(0, 0)"><path d="M11.13 18.85L18.97 18.77Q21.46 18.77 23.49 18.87Q28.93 19.02 31.77 21.44Q34.62 23.85 34.62 28.25Q34.62 31.30 32.84 33.46Q31.05 35.62 27.64 37.26Q33.06 38.96 34.20 45.56Q34.47 47.00 34.63 48.85Q34.79 50.71 34.89 51.34L35.13 52.59Q35.52 54.79 35.82 55.76L35.72 55.83Q31.57 56.10 28.14 56.10Q24.71 56.10 22.07 55.98L21.92 55.98Q21.17 55.98 20.31 48.78L20.19 47.73Q20.09 45.04 19.25 44.12Q18.41 43.19 16.33 43.19L16.02 43.21L14.72 43.21L14.72 50.63L14.75 51.42L14.75 55.88Q14.67 56.13 14.38 56.18Q11.69 56.27 6.80 56.27Q1.90 56.27 0.34 56.30L0.20 56.25L0.15 56.27Q0.10 56.27 0 56.20L0.05 54.00L0.02 53.27L0.12 43.14L0.12 41.36L0.15 39.53L0.17 33.20L0.20 32.37L0.12 26.83Q0.12 26.83 0.22 19.04Q0.22 18.85 1.61 18.85L3.17 18.87L4.66 18.87L7.76 18.90L11.13 18.85M35.96 55.69L35.84 55.76L35.84 55.71Q35.84 55.69 35.96 55.69M35.84 55.76L35.84 55.79Q35.82 55.79 35.82 55.76L35.84 55.76M20.17 26.81Q18.70 26.17 16.26 26.17L14.84 26.17Q14.58 26.56 14.58 30.29Q14.58 34.01 14.70 35.28Q22.34 35.11 22.34 30.00Q22.34 27.83 20.17 26.81ZM73.78 47.22L73.75 50.12Q73.75 51.95 73.80 55.91Q73.46 56.37 68.38 56.37Q63.31 56.37 59.30 56.23Q59.25 56.18 58.84 55.62L58.84 51.71L58.89 44.21Q58.89 43.12 58.64 42.92Q58.40 42.72 57.15 42.72L56.81 42.72Q54.49 42.72 53.15 42.94L53.15 46.36L53.10 55.81Q52.73 56.20 46.97 56.20L45.80 56.20Q40.82 56.20 38.55 56.05Q38.09 55.91 38.09 52.59L38.23 47.19L38.48 25.32L38.48 24.15Q38.50 23.78 38.50 21.59Q38.50 19.41 38.77 18.82L38.89 18.82Q40.50 18.87 41.26 18.87L43.99 18.87L46.95 18.82L47.88 18.82Q52.03 18.82 52.71 19.78Q53.05 20.26 53.05 21.26L52.98 24.32L52.98 25.46L52.83 30.30Q52.83 30.83 52.91 31.71L54.42 31.71L55.03 31.74L56.98 31.74Q58.06 31.74 59.18 31.57L59.18 25.78L59.20 23.97L59.20 22.29L59.18 21.90L59.18 20.65Q59.18 19.21 59.31 18.90Q59.45 18.58 60.01 18.58L60.50 18.60L62.08 18.60L67.36 18.46Q73.66 18.46 73.66 19.46L73.66 21.19L73.68 21.78L73.66 23.05L73.66 26.83L73.78 42.41Q73.78 42.80 73.73 43.43L73.73 44.60Q73.73 45.39 73.78 46.66L73.78 47.22Z"/></g></g></svg>